<svg width="60" height="60" viewBox="0 0 60 60" fill="none" xmlns="http://www.w3.org/2000/svg">
<path d="M30.0189 6.81415e-06C46.446 0.0266893 59.5732 13.09 59.9895 29.1428C60.4346 46.3752 46.7053 59.971 30.069 60C13.4126 60.0289 0.0872398 46.6187 0.000429856 30.1434C-0.0874931 13.5836 13.3235 -0.0111109 30.0189 6.81415e-06ZM29.9966 57.0649C44.7699 57.1605 57.1069 45.1089 57.0958 29.9766C57.0858 15.0089 44.9235 2.75386 29.6872 2.90728C15.0519 3.05404 2.7483 14.98 2.90857 30.3324C3.06215 45.1879 15.2322 57.1449 29.9966 57.0649Z" fill="#CB436C"/>
<path d="M27.8953 18.3231C27.5158 18.7233 27.1452 19.1324 26.7557 19.5238C24.8659 21.4219 22.9739 23.3179 21.0796 25.2116C20.6434 25.6496 20.1437 25.8464 19.5382 25.6719C18.9762 25.5107 18.6378 25.1226 18.5188 24.5512C18.3863 23.9219 18.6968 23.4639 19.1153 23.047C20.4212 21.7447 21.7255 20.4414 23.0284 19.1369C24.1213 18.0459 25.2172 16.9571 26.3161 15.8705C27.025 15.1645 27.7273 14.453 28.4407 13.7581C29.0962 13.1155 29.9254 13.1122 30.572 13.7581C32.1301 15.3087 33.686 16.8652 35.2397 18.4276C36.7934 19.99 38.3515 21.5416 39.9141 23.0826C40.761 23.9197 40.7109 25.0104 39.785 25.5607C39.5078 25.7198 39.1858 25.7827 38.8691 25.7397C38.5524 25.6966 38.2588 25.55 38.0343 25.3228C36.2469 23.5439 34.4636 21.7603 32.6844 19.9718C32.1535 19.4393 31.6271 18.9012 31.0973 18.3653L31.0049 18.3998C30.996 18.511 30.9782 18.6221 30.9782 18.7333C30.9782 25.4484 30.9782 32.1639 30.9782 38.8797C30.9782 40.8809 30.9782 42.882 30.9782 44.8832C30.9782 45.1523 30.8936 45.2301 30.6343 45.2245C29.8786 45.2123 29.1218 45.2045 28.3661 45.2245C28.0322 45.2345 28.0211 45.0767 28.0211 44.8199C28.0263 39.8614 28.0263 34.9025 28.0211 29.9433V18.3998L27.8953 18.3231Z" fill="#CB436C"/>
</svg>
