<svg width="27" height="17" viewBox="0 0 27 17" fill="none" xmlns="http://www.w3.org/2000/svg">
<path d="M24.3747 0.862004H17.5357V2.75943H24.4016L24.3747 0.862004ZM22.9313 13.9152C22.4125 14.2582 21.7998 14.4322 21.1778 14.4131C20.766 14.456 20.3498 14.4135 19.9552 14.2885C19.5606 14.1635 19.1962 13.9585 18.8846 13.6865C18.3087 13.035 18.0088 12.1858 18.0483 11.3181H26.978C27.0424 10.4145 26.965 9.50643 26.7487 8.62666C26.5395 7.78967 26.1733 6.99975 25.6696 6.29861C25.1626 5.6185 24.5077 5.0618 23.7542 4.67032C22.9158 4.25792 21.991 4.05035 21.0564 4.06476C20.1773 4.05833 19.3059 4.22763 18.4935 4.56266C17.7495 4.87553 17.0755 5.33298 16.5106 5.90836C15.9473 6.49524 15.511 7.1915 15.2291 7.95381C14.9265 8.77678 14.7757 9.64756 14.784 10.5241C14.7701 11.4131 14.9163 12.2973 15.2156 13.1347C15.4699 13.8931 15.8734 14.5931 16.4027 15.1937C16.9502 15.7833 17.6231 16.2431 18.372 16.5393C19.2072 16.8568 20.0954 17.0121 20.9889 16.9969C22.2426 17.0359 23.4804 16.7085 24.55 16.0549C25.6304 15.289 26.4082 14.1703 26.7487 12.8925H23.7677C23.6081 13.3152 23.3144 13.6744 22.9313 13.9152ZM18.3046 8.37098C18.4096 8.03547 18.5839 7.72563 18.8162 7.4614C19.0485 7.19718 19.3337 6.98444 19.6535 6.83689C20.077 6.64672 20.5382 6.55471 21.0024 6.56775C21.3378 6.53917 21.6754 6.58331 21.992 6.69713C22.3087 6.81094 22.5969 6.99175 22.8369 7.22714C23.2953 7.78686 23.5894 8.4622 23.6867 9.1784H18.0888C18.1106 8.90493 18.1603 8.63439 18.2372 8.37098H18.3046ZM11.1689 7.72505C11.8554 7.43984 12.452 6.9749 12.8955 6.37935C13.3032 5.74688 13.5057 5.0045 13.4755 4.25315C13.502 3.56798 13.368 2.88608 13.0844 2.26153C12.846 1.72045 12.4634 1.25498 11.9783 0.915832C11.4639 0.563223 10.8797 0.324618 10.2651 0.21607C9.53784 0.0638903 8.79602 -0.0083109 8.05295 0.000759451H0V16.9296H8.2283C8.97922 16.9301 9.72715 16.8352 10.454 16.647C11.1429 16.4692 11.7956 16.1732 12.3829 15.7723C12.9518 15.379 13.415 14.8521 13.7318 14.2382C14.0824 13.5516 14.2541 12.788 14.2309 12.0178C14.2565 11.0634 13.9881 10.124 13.462 9.32642C12.8963 8.52429 12.0572 7.95505 11.1015 7.72505H11.1689ZM3.73646 2.894H7.23012C7.55108 2.89361 7.87149 2.92062 8.18784 2.97474C8.47913 3.01781 8.75888 3.11846 9.01067 3.2708C9.25394 3.40808 9.45106 3.61409 9.57721 3.8629C9.73344 4.16127 9.80789 4.49551 9.79303 4.8318C9.81816 5.12145 9.77377 5.4129 9.66352 5.68202C9.55327 5.95114 9.38033 6.19018 9.15905 6.37935C8.6763 6.71043 8.09865 6.87576 7.51339 6.85035H3.73646V2.894ZM10.2651 12.906C10.1266 13.1802 9.91699 13.4125 9.65814 13.5788C9.38877 13.746 9.09196 13.8644 8.78135 13.9287C8.43611 14.0058 8.08295 14.0419 7.72921 14.0364H3.6825V9.39371H7.72921C8.42365 9.36337 9.10943 9.55682 9.68512 9.94544C9.9452 10.1783 10.1467 10.469 10.2732 10.7939C10.3998 11.1189 10.4478 11.469 10.4135 11.816C10.45 12.1859 10.3992 12.5592 10.2651 12.906Z" fill="black"/>
</svg>
